# Blender 3.3.1
# www.blender.org
mtllib GlobberGun.mtl
o Cylinder
v 0.051780 0.198455 0.419927 1.0000 1.0000 1.0000
v 0.197009 0.123305 0.521933 1.0000 1.0000 1.0000
v -0.000000 0.212426 0.038105 1.0000 1.0000 1.0000
v 0.005203 0.210246 0.308702 1.0000 1.0000 1.0000
v 0.141897 0.132245 0.038105 1.0000 1.0000 1.0000
v 0.162773 0.129380 0.316936 1.0000 1.0000 1.0000
v 0.176943 -0.047922 0.038105 1.0000 1.0000 1.0000
v 0.185324 -0.052634 0.316954 1.0000 1.0000 1.0000
v 0.078747 -0.192404 0.038105 1.0000 1.0000 1.0000
v 0.060931 -0.195173 0.315618 1.0000 1.0000 1.0000
v -0.078747 -0.192404 0.038105 1.0000 1.0000 1.0000
v -0.093176 -0.185876 0.321510 1.0000 1.0000 1.0000
v -0.176943 -0.047922 0.038105 1.0000 1.0000 1.0000
v -0.192279 -0.043148 0.323410 1.0000 1.0000 1.0000
v -0.141897 0.132245 0.038105 1.0000 1.0000 1.0000
v -0.161640 0.133685 0.320341 1.0000 1.0000 1.0000
v 0.212092 -0.053342 0.531727 1.0000 1.0000 1.0000
v 0.055619 -0.196573 0.465179 1.0000 1.0000 1.0000
v -0.130161 -0.148788 0.496019 1.0000 1.0000 1.0000
v -0.191476 -0.004882 0.559742 1.0000 1.0000 1.0000
v -0.170264 0.143355 0.539097 1.0000 1.0000 1.0000
v 0.107784 0.192604 0.560989 1.0000 1.0000 1.0000
v -0.156701 0.144416 0.554664 1.0000 1.0000 1.0000
v -0.177896 0.000423 0.578699 1.0000 1.0000 1.0000
v -0.081357 -0.101693 0.645840 1.0000 1.0000 1.0000
v 0.089782 -0.166773 0.610063 1.0000 1.0000 1.0000
v 0.207158 -0.056730 0.548159 1.0000 1.0000 1.0000
v 0.187414 0.123491 0.537321 1.0000 1.0000 1.0000
v 0.169727 0.216834 1.014371 1.0000 1.0000 1.0000
v -0.032907 0.191630 1.001539 1.0000 1.0000 1.0000
v -0.134904 0.039762 1.004853 1.0000 1.0000 1.0000
v -0.058703 -0.098866 1.017259 1.0000 1.0000 1.0000
v 0.120787 -0.165032 1.020622 1.0000 1.0000 1.0000
v 0.268714 -0.107793 1.015788 1.0000 1.0000 1.0000
v 0.288641 0.060642 1.022754 1.0000 1.0000 1.0000
v 0.091099 0.139037 1.262670 1.0000 1.0000 1.0000
v -0.079525 0.105528 1.185654 1.0000 1.0000 1.0000
v -0.144160 -0.039718 1.199376 1.0000 1.0000 1.0000
v -0.028818 -0.116950 1.239734 1.0000 1.0000 1.0000
v 0.139184 -0.102805 1.205670 1.0000 1.0000 1.0000
v 0.223409 -0.066916 1.175171 1.0000 1.0000 1.0000
v 0.201229 0.022588 1.219481 1.0000 1.0000 1.0000
v 0.029985 0.077409 1.350388 1.0000 1.0000 1.0000
v -0.087550 0.090310 1.277803 1.0000 1.0000 1.0000
v -0.116770 0.019086 1.272162 1.0000 1.0000 1.0000
v -0.018274 -0.014577 1.283691 1.0000 1.0000 1.0000
v 0.121670 0.000504 1.251228 1.0000 1.0000 1.0000
v 0.178652 -0.013482 1.260770 1.0000 1.0000 1.0000
v 0.139355 0.015425 1.317569 1.0000 1.0000 1.0000
v -0.203199 0.163064 0.483763 1.0000 1.0000 1.0000
v -0.221923 -0.030234 0.499946 1.0000 1.0000 1.0000
v 0.220853 -0.077010 0.470172 1.0000 1.0000 1.0000
v 0.224114 0.145289 0.468220 1.0000 1.0000 1.0000
v -0.100587 0.112990 0.600848 1.0000 1.0000 1.0000
v -0.150214 -0.000905 0.643069 1.0000 1.0000 1.0000
v 0.204679 -0.096146 0.598513 1.0000 1.0000 1.0000
v 0.151923 0.080320 0.580308 1.0000 1.0000 1.0000
v -0.189362 0.133328 0.538906 1.0000 1.0000 1.0000
v -0.208178 -0.032218 0.565039 1.0000 1.0000 1.0000
v 0.211864 -0.032218 0.558244 1.0000 1.0000 1.0000
v 0.193300 0.133328 0.531931 1.0000 1.0000 1.0000
v -0.172041 0.134392 0.552778 1.0000 1.0000 1.0000
v -0.191021 -0.032597 0.579139 1.0000 1.0000 1.0000
v 0.194572 -0.032597 0.572177 1.0000 1.0000 1.0000
v 0.175847 0.134392 0.545635 1.0000 1.0000 1.0000
v -0.278823 0.063877 0.654516 1.0000 1.0000 1.0000
v -0.297639 0.006908 0.680650 1.0000 1.0000 1.0000
v -0.261502 0.064940 0.668388 1.0000 1.0000 1.0000
v -0.280481 0.006529 0.694749 1.0000 1.0000 1.0000
v 0.300209 0.006908 0.674708 1.0000 1.0000 1.0000
v 0.281646 0.063877 0.648396 1.0000 1.0000 1.0000
v 0.282917 0.006529 0.688642 1.0000 1.0000 1.0000
v 0.264192 0.064940 0.662100 1.0000 1.0000 1.0000
v 0.000000 0.126129 -0.053347 1.0000 1.0000 1.0000
v 0.084397 0.078439 -0.053347 1.0000 1.0000 1.0000
v 0.105241 -0.028719 -0.053347 1.0000 1.0000 1.0000
v 0.046837 -0.114653 -0.053347 1.0000 1.0000 1.0000
v -0.046837 -0.114653 -0.053347 1.0000 1.0000 1.0000
v -0.105241 -0.028719 -0.053347 1.0000 1.0000 1.0000
v -0.084397 0.078439 -0.053347 1.0000 1.0000 1.0000
v -0.000000 -0.000534 -0.075133 1.0000 1.0000 1.0000
v 0.034899 0.087034 1.352436 1.0000 1.0000 1.0000
v -0.091608 0.100311 1.277585 1.0000 1.0000 1.0000
v -0.126434 0.016910 1.274410 1.0000 1.0000 1.0000
v -0.018438 -0.020734 1.290446 1.0000 1.0000 1.0000
v 0.127170 -0.004082 1.257289 1.0000 1.0000 1.0000
v 0.190633 -0.017012 1.260731 1.0000 1.0000 1.0000
v 0.146402 0.019215 1.322013 1.0000 1.0000 1.0000
v 0.149250 0.197454 0.659999 1.0000 1.0000 1.0000
v 0.175354 0.203791 0.782612 1.0000 1.0000 1.0000
v 0.175043 0.210806 0.890310 1.0000 1.0000 1.0000
v 0.293278 0.051873 0.897544 1.0000 1.0000 1.0000
v 0.267138 0.048413 0.779332 1.0000 1.0000 1.0000
v 0.218416 0.053052 0.652835 1.0000 1.0000 1.0000
v 0.229302 -0.108538 0.674054 1.0000 1.0000 1.0000
v 0.255504 -0.110160 0.790683 1.0000 1.0000 1.0000
v 0.274706 -0.105641 0.904473 1.0000 1.0000 1.0000
v 0.123684 -0.155107 0.906785 1.0000 1.0000 1.0000
v 0.126707 -0.156896 0.805806 1.0000 1.0000 1.0000
v 0.110310 -0.162671 0.698285 1.0000 1.0000 1.0000
v -0.054739 -0.090661 0.728274 1.0000 1.0000 1.0000
v -0.048887 -0.079885 0.812714 1.0000 1.0000 1.0000
v -0.053461 -0.079171 0.904390 1.0000 1.0000 1.0000
v -0.123228 0.065112 0.897325 1.0000 1.0000 1.0000
v -0.110854 0.051019 0.802605 1.0000 1.0000 1.0000
v -0.118462 0.031725 0.727147 1.0000 1.0000 1.0000
v -0.034001 0.155234 0.695157 1.0000 1.0000 1.0000
v -0.016717 0.175456 0.785260 1.0000 1.0000 1.0000
v -0.024833 0.188914 0.889264 1.0000 1.0000 1.0000
v 0.127127 -0.163931 1.117965 1.0000 1.0000 1.0000
v -0.047044 -0.122415 1.122590 1.0000 1.0000 1.0000
v -0.135552 -0.006468 1.108151 1.0000 1.0000 1.0000
v -0.054605 0.138441 1.112860 1.0000 1.0000 1.0000
v 0.136722 0.180483 1.157401 1.0000 1.0000 1.0000
v 0.253408 0.043674 1.141232 1.0000 1.0000 1.0000
v 0.254824 -0.099214 1.114213 1.0000 1.0000 1.0000
v -0.084258 0.104090 1.231298 1.0000 1.0000 1.0000
v 0.066078 0.108729 1.307462 1.0000 1.0000 1.0000
v 0.172748 0.017562 1.276894 1.0000 1.0000 1.0000
v 0.206292 -0.038214 1.212754 1.0000 1.0000 1.0000
v 0.133346 -0.052433 1.231071 1.0000 1.0000 1.0000
v -0.023730 -0.068983 1.264705 1.0000 1.0000 1.0000
v -0.136097 -0.012832 1.234804 1.0000 1.0000 1.0000
v 0.172170 0.019424 1.266422 1.0000 1.0000 1.0000
v 0.064414 0.103677 1.306069 1.0000 1.0000 1.0000
v 0.200298 -0.040939 1.219388 1.0000 1.0000 1.0000
v 0.129917 -0.051963 1.228877 1.0000 1.0000 1.0000
v -0.024124 -0.065098 1.260117 1.0000 1.0000 1.0000
v -0.130345 -0.007989 1.234158 1.0000 1.0000 1.0000
v -0.082974 0.096132 1.230750 1.0000 1.0000 1.0000
v 0.216658 -0.022816 0.601294 1.0000 1.0000 1.0000
v 0.238744 -0.013034 0.630410 1.0000 1.0000 1.0000
v 0.260831 -0.003253 0.659526 1.0000 1.0000 1.0000
v 0.242106 0.082303 0.632984 1.0000 1.0000 1.0000
v 0.220019 0.099666 0.603868 1.0000 1.0000 1.0000
v 0.197933 0.117029 0.574751 1.0000 1.0000 1.0000
v 0.215387 0.115965 0.561047 1.0000 1.0000 1.0000
v 0.237473 0.098603 0.590163 1.0000 1.0000 1.0000
v 0.259559 0.081240 0.619279 1.0000 1.0000 1.0000
v 0.278123 -0.002873 0.645592 1.0000 1.0000 1.0000
v 0.256036 -0.012655 0.616476 1.0000 1.0000 1.0000
v 0.233950 -0.022436 0.587360 1.0000 1.0000 1.0000
v -0.213386 -0.022816 0.608041 1.0000 1.0000 1.0000
v -0.235751 -0.013034 0.636944 1.0000 1.0000 1.0000
v -0.258116 -0.003253 0.665846 1.0000 1.0000 1.0000
v -0.275273 -0.002873 0.651747 1.0000 1.0000 1.0000
v -0.252908 -0.012655 0.622844 1.0000 1.0000 1.0000
v -0.230543 -0.022436 0.593942 1.0000 1.0000 1.0000
v -0.211727 0.115965 0.567809 1.0000 1.0000 1.0000
v -0.234093 0.098603 0.596711 1.0000 1.0000 1.0000
v -0.256458 0.081240 0.625614 1.0000 1.0000 1.0000
v -0.239137 0.082303 0.639486 1.0000 1.0000 1.0000
v -0.216771 0.099666 0.610583 1.0000 1.0000 1.0000
v -0.194406 0.117029 0.581680 1.0000 1.0000 1.0000
vn 0.6997 -0.4019 -0.5907
vn -0.2656 0.9624 -0.0568
vn 0.4739 0.8805 -0.0144
vn -0.1647 0.9382 0.3045
vn 0.6669 -0.7339 -0.1290
vn 0.9864 0.1569 -0.0496
vn -0.2345 -0.9225 0.3067
vn 0.3963 0.9009 -0.1771
vn 0.7902 -0.6128 0.0052
vn 0.7729 -0.3626 0.5207
vn -0.9689 0.1179 -0.2176
vn -0.0297 -0.9995 0.0050
vn 0.7991 0.6012 -0.0038
vn 0.9524 0.0440 -0.3018
vn -0.8239 -0.5658 -0.0319
vn -0.8063 -0.5874 -0.0694
vn 0.5341 0.8047 0.2593
vn -0.9817 0.1801 -0.0626
vn 0.5616 -0.8274 -0.0047
vn -0.1557 -0.9839 0.0880
vn -0.4530 0.8915 -0.0107
vn -0.3801 0.6727 -0.6348
vn -0.7246 -0.5329 0.4371
vn -0.0403 -0.9485 0.3143
vn 0.3351 -0.9414 -0.0373
vn -0.8725 -0.4613 -0.1612
vn -0.1146 0.9925 -0.0432
vn 0.9920 -0.1172 0.0479
vn -0.3650 -0.9214 -0.1335
vn -0.8090 0.5876 -0.0122
vn -0.0953 0.9685 0.2301
vn -0.8938 0.4484 -0.0018
vn 0.6882 0.4911 0.5341
vn 0.4336 -0.7365 0.5193
vn -0.6769 -0.7331 -0.0665
vn -0.2833 0.9197 0.2718
vn 0.8525 -0.0724 0.5177
vn 0.0497 0.0429 -0.9978
vn 0.8930 0.3090 0.3271
vn 0.2392 -0.4583 0.8560
vn -0.9137 0.3951 -0.0948
vn 0.5939 0.6169 0.5165
vn 0.0825 -0.7149 0.6944
vn -0.3876 -0.5472 0.7418
vn -0.8689 0.1524 0.4709
vn 0.9543 0.0370 0.2964
vn -0.6928 0.3520 0.6294
vn 0.8263 0.2105 0.5224
vn -0.8301 0.4758 -0.2908
vn -0.8869 0.1659 0.4312
vn 0.4351 0.8990 -0.0489
vn 0.9854 0.0707 0.1547
vn -0.7956 0.0164 0.6056
vn -0.1772 -0.9657 0.1897
vn -0.8624 -0.1477 -0.4842
vn 0.9947 0.1001 0.0219
vn -0.4716 0.7644 0.4396
vn -0.7295 0.0634 -0.6810
vn -0.3386 0.1930 0.9209
vn 0.0147 -0.1493 -0.9887
vn -0.5557 0.4882 0.6730
vn -0.3021 0.9021 0.3081
vn 0.7897 0.0164 0.6132
vn -0.7897 -0.0166 -0.6133
vn 0.5492 0.4882 0.6783
vn 0.7956 -0.0166 -0.6056
vn 0.2992 0.9021 0.3110
vn 0.1754 -0.9657 0.1914
vn -0.0953 0.1687 -0.9810
vn 0.7930 0.1543 -0.5894
vn -0.7930 0.1543 -0.5894
vn 0.6564 -0.4461 -0.6083
vn -0.0000 -0.7619 -0.6477
vn -0.6564 -0.4461 -0.6083
vn 0.3801 0.6727 -0.6348
vn -0.1713 -0.1164 -0.9783
vn 0.1713 -0.1164 -0.9783
vn 0.0953 0.1687 -0.9810
vn -0.2132 0.0415 -0.9761
vn -0.0000 -0.1875 -0.9823
vn 0.2132 0.0415 -0.9761
vn -0.6533 -0.4616 -0.6000
vn -0.5207 -0.0567 0.8518
vn 0.0925 -0.0948 0.9912
vn 0.1268 0.6551 0.7448
vn 0.0578 0.7768 0.6270
vn 0.0796 0.6988 0.7109
vn -0.0879 -0.8972 0.4327
vn 0.0012 -0.4364 0.8998
vn -0.8680 -0.0871 -0.4888
vn 0.0149 0.6268 -0.7790
vn -0.2306 0.3918 -0.8907
vn 0.3710 0.5185 -0.7704
vn 0.9164 -0.4003 0.0031
vn 0.1351 -0.9515 -0.2765
vn -0.8160 0.5317 0.2266
vn -0.8129 0.5822 -0.0167
vn -0.7876 0.5941 -0.1636
vn -0.3419 -0.9230 0.1763
vn -0.3865 -0.9140 0.1236
vn -0.3979 -0.9174 -0.0038
vn 0.8592 0.1033 -0.5011
vn 0.9549 -0.0323 -0.2951
vn 0.9768 -0.1042 -0.1873
vn -0.3070 0.9498 -0.0598
vn -0.1922 0.9779 -0.0829
vn -0.1269 0.9868 -0.1005
vn -0.7914 -0.4632 0.3989
vn -0.8875 -0.4335 0.1562
vn -0.8998 -0.4337 -0.0474
vn 0.4440 -0.8803 -0.1670
vn 0.3693 -0.9278 -0.0530
vn 0.3253 -0.9456 0.0033
vn 0.8158 0.3379 -0.4693
vn 0.8475 0.4640 -0.2577
vn 0.8262 0.5505 -0.1200
vn 0.9727 -0.0815 0.2171
vn -0.2016 0.9367 0.2864
vn -0.8246 -0.5482 -0.1398
vn 0.4055 -0.9121 0.0607
vn 0.7439 0.5898 0.3144
vn -0.8416 0.5181 0.1524
vn -0.2906 -0.9535 -0.0798
vn -0.5050 -0.4865 0.7129
vn 0.3981 -0.4981 0.7704
vn 0.6735 0.5148 0.5305
vn -0.9125 0.3996 -0.0880
vn 0.2227 -0.4431 0.8684
vn 0.9039 0.0280 0.4269
vn -0.2324 0.9391 0.2532
vn 0.2845 -0.8910 -0.3538
vn 0.9121 -0.4099 -0.0038
vn 0.4795 0.4070 -0.7775
vn -0.2146 0.3735 -0.9025
vn -0.3590 0.5256 -0.7713
vn -0.8664 0.0134 -0.4992
vn -0.5779 -0.5672 -0.5868
vn 0.7962 -0.0075 -0.6050
vn 0.7961 -0.0092 -0.6051
vn 0.7959 -0.0118 -0.6053
vn -0.7962 0.0075 0.6050
vn -0.7961 0.0091 0.6051
vn -0.7959 0.0117 0.6053
vn -0.7904 -0.0075 -0.6126
vn -0.7903 -0.0092 -0.6127
vn -0.7901 -0.0118 -0.6129
vn 0.7904 0.0075 0.6126
vn 0.7903 0.0091 0.6127
vn 0.7901 0.0117 0.6129
vt 0.461244 0.996179
vt 0.491630 0.442977
vt 0.281673 0.211879
vt 0.559896 0.993622
vt 0.503847 0.994855
vt 0.842590 0.548558
vt 0.647064 0.932208
vt 0.627288 0.884968
vt 0.716746 0.484881
vt 0.751984 0.634310
vt 0.646382 0.603162
vt 0.865183 0.780487
vt 0.504816 0.884681
vt 0.822619 0.805986
vt 0.447322 0.900016
vt 0.504962 0.801150
vt 0.872578 0.778856
vt 0.829459 0.804668
vt 0.446560 0.785944
vt 0.759895 0.636216
vt 0.654822 0.606540
vt 0.649714 0.932871
vt 0.836086 0.533879
vt 0.743915 0.495597
vt 0.627857 0.882879
vt 0.437945 0.493162
vt 0.314888 0.194851
vt 0.779932 0.812146
vt 0.417134 0.918272
vt 0.415919 0.767368
vt 0.785927 0.811120
vt 0.463451 0.504522
vt 0.311193 0.783194
vt 0.494022 0.430482
vt 0.269977 0.780368
vt 0.398804 0.997514
vt 0.461258 0.405595
vt 0.263171 0.800468
vt 0.412542 0.490292
vt 0.312571 0.810421
vt 0.366194 0.743757
vt 0.728176 0.825963
vt 0.367268 0.941388
vt 0.723452 0.827308
vt 0.424070 0.489334
vt 0.315444 0.187561
vt 0.434733 0.408419
vt 0.274939 0.178745
vt 0.196078 0.999638
vt 0.200933 0.831637
vt 0.148781 0.425203
vt 0.324200 0.665736
vt 0.633778 0.916533
vt 0.189146 0.716072
vt 0.630893 0.919031
vt 0.190907 0.969359
vt 0.326822 0.662835
vt 0.149120 0.428003
vt 0.200800 0.825866
vt 0.126983 1.000216
vt 0.972383 0.201803
vt 0.732777 0.673491
vt 0.819904 0.320663
vt 0.029995 0.475084
vt 0.127446 0.869347
vt 0.950145 0.125560
vt 0.759578 0.179507
vt 0.773210 0.507024
vt 0.812885 0.138558
vt 0.819904 0.118204
vt 0.221379 0.719479
vt 0.909031 0.094882
vt 0.697142 0.138993
vt 0.703069 0.000000
vt 0.030617 0.697811
vt 0.562130 1.001997
vt 0.884050 0.134218
vt 0.630358 0.177815
vt 0.563421 0.090704
vt 0.034180 0.989695
vt 0.557649 1.003746
vt 0.884686 0.210844
vt 0.612785 0.320023
vt 0.538327 0.354096
vt 0.225528 0.716027
vt 0.910459 0.267060
vt 0.655206 0.390961
vt 0.627970 0.507024
vt 0.131045 0.868334
vt 0.036102 0.476878
vt 0.951290 0.263636
vt 0.773210 0.839958
vt 0.718436 0.392624
vt 0.750383 0.476030
vt 0.776512 0.300912
vt 0.784986 0.153954
vt 0.699549 0.076057
vt 0.599113 0.138824
vt 0.578960 0.333753
vt 0.642648 0.443528
vt 0.732192 0.431764
vt 0.605081 0.842620
vt 0.624758 0.435029
vt 0.249523 0.712053
vt 0.539234 0.568612
vt 0.532666 0.563560
vt 0.607408 0.846059
vt 0.612809 0.453081
vt 0.252590 0.271108
vt 0.198637 0.812859
vt 0.393215 0.406909
vt 0.508381 0.776552
vt 0.434178 0.574835
vt 0.437754 0.569646
vt 0.210203 0.164710
vt 0.380835 0.410182
vt 0.509869 0.772248
vt 0.278411 0.794723
vt 0.707658 0.385853
vt 0.306666 0.818126
vt 1.014962 0.800453
vt 0.309922 0.180778
vt 1.016159 0.798554
vt 0.282001 0.180112
vt 0.768005 0.438634
vt 0.284314 0.803240
vt 0.768131 0.476733
vt 0.287082 0.835303
vt 0.767592 0.552288
vt 0.297750 0.169279
vt 0.885486 0.649087
vt 0.297710 0.165926
vt 0.878412 0.650805
vt 0.733319 0.646746
vt 0.795332 0.879235
vt 0.888237 0.830545
vt 0.696307 0.840046
vt 0.698050 0.859658
vt 0.731454 0.679551
vt 0.573989 0.793321
vt 0.822677 0.818788
vt 0.629007 0.990028
vt 0.659777 0.956779
vt 0.935389 0.616179
vt 0.867270 0.662818
vt 0.914601 0.741519
vt 0.584820 0.868264
vt 0.922167 0.740495
vt 0.584656 0.817209
vt 0.876398 0.663699
vt 0.661612 0.954107
vt 0.946768 0.618891
vt 0.685710 0.989621
vt 0.997251 0.689430
vt 0.695187 0.842680
vt 0.988627 0.689842
vt 0.769157 0.673491
vt 0.770215 0.298200
vt 0.793139 0.530297
vt 0.778449 0.162682
vt 0.697435 0.093907
vt 0.605875 0.148722
vt 0.585976 0.329403
vt 0.645191 0.427734
vt 0.793139 0.816685
vt 0.729561 0.420292
vt 0.364729 0.998010
vt 0.321969 0.998419
vt 0.272490 0.998728
vt 0.209693 0.416993
vt 0.302405 0.764075
vt 0.266974 0.410400
vt 0.380764 0.765493
vt 0.325603 0.407855
vt 0.448218 0.768392
vt 0.420520 0.593223
vt 0.394704 0.616826
vt 0.365095 0.639345
vt 0.248471 0.961045
vt 0.659479 0.888515
vt 0.294430 0.954093
vt 0.682926 0.864373
vt 0.335949 0.947299
vt 0.705133 0.842927
vt 0.334796 0.737630
vt 0.709034 0.841210
vt 0.293131 0.730831
vt 0.686259 0.862334
vt 0.247003 0.724017
vt 0.662451 0.886198
vt 0.362809 0.642381
vt 0.392367 0.620309
vt 0.417816 0.597433
vt 0.334463 0.404569
vt 0.448201 0.767602
vt 0.272473 0.407156
vt 0.379177 0.767054
vt 0.212241 0.413948
vt 0.302281 0.763497
vt 0.596056 0.959202
vt 0.116535 0.979050
vt 0.599529 0.956926
vt 0.114031 0.707268
vt 0.276118 0.692790
vt 0.151131 0.864537
vt 0.086834 0.450121
vt 0.150807 1.000170
vt 0.090225 0.452422
vt 0.152849 0.865568
vt 0.279358 0.689833
vt 0.767473 0.172677
vt 0.783138 0.518718
vt 0.750957 0.673491
vt 0.783138 0.828264
vt 0.723247 0.404194
vt 0.650722 0.409565
vt 0.600980 0.324138
vt 0.618739 0.164751
vt 0.697810 0.116768
vt 0.740421 0.451571
vt 0.798405 0.310894
vt 0.635237 0.475248
vt 0.561270 0.342327
vt 0.582865 0.117898
vt 0.701176 0.037936
vt 0.798037 0.146932
vt 0.800119 0.138221
vt 0.807612 0.685146
vt 0.729738 0.721204
vt 0.651864 0.757263
vt 0.836611 0.776792
vt 0.850545 0.734797
vt 0.864479 0.692801
vt 0.758867 0.498863
vt 0.749729 0.559092
vt 0.740591 0.619321
vt 0.777577 0.844381
vt 0.857104 0.829105
vt 0.936631 0.813829
vt 0.749771 0.624227
vt 0.731950 0.696167
vt 0.714128 0.768106
vt 0.850240 0.859539
vt 0.905147 0.839844
vt 0.960055 0.820149
vt 0.714073 0.451076
vt 0.720488 0.516299
vt 0.726904 0.581522
vt 0.858210 0.742092
vt 0.828184 0.653639
vt 0.798157 0.565186
s 0
g Cylinder_Material.001
usemtl Material.001
f 20/33/1 24/40/1 63/128/1 59/120/1
f 4/5/2 16/25/2 50/102/2 1/1/2
f 3/4/3 4/5/3 6/8/3 5/7/3
f 1/1/4 50/102/4 54/112/4 22/36/4
f 10/14/5 8/11/5 52/106/5 18/28/5
f 5/6/6 6/9/6 8/11/6 7/10/6
f 19/30/7 18/29/7 26/43/7 25/41/7
f 6/8/8 4/5/8 1/1/8 53/107/8
f 7/10/9 8/11/9 10/14/9 9/12/9
f 27/46/10 17/27/10 60/122/10 64/130/10
f 16/24/11 14/21/11 51/105/11 50/103/11
f 9/13/12 10/15/12 12/19/12 11/16/12
f 92/171/13 91/169/13 29/49/13 35/59/13
f 8/11/14 6/9/14 53/108/14 52/106/14
f 11/17/15 12/18/15 14/21/15 13/20/15
f 14/21/16 12/18/16 19/31/16 51/105/16
f 53/107/17 1/1/17 22/36/17 57/117/17
f 13/20/18 14/21/18 16/24/18 15/23/18
f 18/28/19 52/106/19 56/114/19 26/44/19
f 12/19/20 10/15/20 18/29/20 19/30/20
f 15/22/21 16/25/21 4/5/21 3/4/21
f 15/22/22 3/4/22 74/142/22 80/151/22
f 51/105/23 19/31/23 25/42/23 55/113/23
f 111/203/24 110/201/24 40/80/24 39/75/24
f 98/180/25 97/178/25 34/57/25 33/55/25
f 104/191/26 103/190/26 32/53/26 31/52/26
f 91/169/27 109/199/27 30/50/27 29/49/27
f 97/178/28 92/170/28 35/58/28 34/57/28
f 103/189/29 98/179/29 33/56/29 32/54/29
f 109/198/30 104/191/30 31/52/30 30/51/30
f 118/213/31 117/212/31 83/159/31 82/157/31
f 113/206/32 112/204/32 38/71/32 37/64/32
f 115/209/33 114/207/33 36/60/33 42/89/33
f 110/200/34 116/210/34 41/85/34 40/81/34
f 112/204/35 111/202/35 39/76/35 38/71/35
f 114/207/36 113/205/36 37/65/36 36/60/36
f 116/210/37 115/208/37 42/90/37 41/85/37
f 36/61/38 42/91/38 41/86/38 40/82/38 39/77/38 38/72/38 37/66/38
f 120/216/39 119/215/39 88/166/39 87/164/39
f 122/218/40 121/217/40 86/163/40 85/162/40
f 117/211/41 123/219/41 84/161/41 83/160/41
f 119/214/42 118/213/42 82/157/42 88/165/42
f 121/217/43 120/216/43 87/164/43 86/163/43
f 123/219/44 122/218/44 85/162/44 84/161/44
f 20/32/45 21/34/45 50/103/45 51/105/45
f 2/2/46 17/26/46 52/106/46 53/108/46
f 23/37/47 24/39/47 55/113/47 54/111/47
f 27/45/48 28/47/48 57/116/48 56/114/48
f 28/48/49 2/3/49 53/109/49 57/115/49
f 24/39/50 20/32/50 51/105/50 55/113/50
f 21/35/51 23/38/51 54/110/51 50/104/51
f 17/26/52 27/45/52 56/114/52 52/106/52
f 134/231/53 133/230/53 72/140/53 73/141/53
f 146/243/54 145/242/54 69/137/54 67/135/54
f 28/48/55 27/46/55 64/130/55 65/132/55
f 17/27/56 2/3/56 61/124/56 60/122/56
f 23/38/57 21/35/57 58/118/57 62/126/57
f 2/3/58 28/48/58 65/132/58 61/124/58
f 24/40/59 23/38/59 62/126/59 63/128/59
f 21/35/60 20/33/60 59/120/60 58/118/60
f 66/134/61 67/135/61 69/137/61 68/136/61
f 152/249/62 151/248/62 66/134/62 68/136/62
f 145/242/63 152/249/63 68/136/63 69/137/63
f 151/248/64 146/243/64 67/135/64 66/134/64
f 70/138/65 71/139/65 73/141/65 72/140/65
f 140/237/66 139/236/66 71/139/66 70/138/66
f 139/236/67 134/231/67 73/141/67 71/139/67
f 133/230/68 140/237/68 70/138/68 72/140/68
f 80/151/69 74/142/69 81/153/69
f 5/6/70 7/10/70 76/145/70 75/144/70
f 13/20/71 15/23/71 80/152/71 79/150/71
f 7/10/72 9/12/72 77/146/72 76/145/72
f 9/13/73 11/16/73 78/149/73 77/147/73
f 11/17/74 13/20/74 79/150/74 78/148/74
f 3/4/75 5/7/75 75/143/75 74/142/75
f 78/148/76 79/150/76 81/154/76
f 76/145/77 77/146/77 81/156/77
f 74/142/78 75/143/78 81/153/78
f 79/150/79 80/152/79 81/154/79
f 77/147/80 78/149/80 81/155/80
f 75/144/81 76/145/81 81/156/81
f 125/221/82 36/63/82 42/94/82 124/220/82
f 44/96/83 43/95/83 82/158/83 83/160/83
f 45/97/84 44/96/84 83/160/84 84/161/84
f 46/98/85 45/97/85 84/161/85 85/162/85
f 47/99/86 46/98/86 85/162/86 86/163/86
f 48/100/87 47/99/87 86/163/87 87/164/87
f 49/101/88 48/100/88 87/164/88 88/166/88
f 43/95/89 49/101/89 88/166/89 82/158/89
f 126/222/90 48/100/90 49/101/90 124/220/90
f 127/223/91 47/99/91 48/100/91 126/222/91
f 128/224/92 46/98/92 47/99/92 127/223/92
f 129/225/93 45/97/93 46/98/93 128/224/93
f 130/227/94 44/96/94 45/97/94 129/225/94
f 125/221/95 43/95/95 44/96/95 130/226/95
f 54/111/96 55/113/96 106/193/96 107/194/96
f 107/194/97 106/193/97 105/192/97 108/196/97
f 108/196/98 105/192/98 104/191/98 109/198/98
f 25/41/99 26/43/99 100/183/99 101/185/99
f 101/185/100 100/183/100 99/181/100 102/187/100
f 102/187/101 99/181/101 98/179/101 103/189/101
f 56/114/102 57/116/102 94/174/102 95/176/102
f 95/176/103 94/174/103 93/172/103 96/177/103
f 96/177/104 93/172/104 92/170/104 97/178/104
f 22/36/105 54/112/105 107/195/105 89/167/105
f 89/167/106 107/195/106 108/197/106 90/168/106
f 90/168/107 108/197/107 109/199/107 91/169/107
f 55/113/108 25/42/108 101/186/108 106/193/108
f 106/193/109 101/186/109 102/188/109 105/192/109
f 105/192/110 102/188/110 103/190/110 104/191/110
f 26/44/111 56/114/111 95/176/111 100/184/111
f 100/184/112 95/176/112 96/177/112 99/182/112
f 99/182/113 96/177/113 97/178/113 98/180/113
f 57/117/114 22/36/114 89/167/114 94/175/114
f 94/175/115 89/167/115 90/168/115 93/173/115
f 93/173/116 90/168/116 91/169/116 92/171/116
f 34/57/117 35/58/117 115/208/117 116/210/117
f 29/49/118 30/50/118 113/205/118 114/207/118
f 31/52/119 32/53/119 111/202/119 112/204/119
f 33/55/120 34/57/120 116/210/120 110/200/120
f 35/59/121 29/49/121 114/207/121 115/209/121
f 30/51/122 31/52/122 112/204/122 113/206/122
f 32/54/123 33/56/123 110/201/123 111/203/123
f 38/73/124 39/78/124 122/218/124 123/219/124
f 40/83/125 41/87/125 120/216/125 121/217/125
f 42/92/126 36/62/126 118/213/126 119/214/126
f 37/67/127 38/73/127 123/219/127 117/211/127
f 39/78/128 40/83/128 121/217/128 122/218/128
f 41/87/129 42/93/129 119/215/129 120/216/129
f 36/62/130 37/68/130 117/212/130 118/213/130
f 36/63/131 125/221/131 130/226/131 37/69/131
f 37/70/132 130/227/132 129/225/132 38/74/132
f 38/74/133 129/225/133 128/224/133 39/79/133
f 39/79/134 128/224/134 127/223/134 40/84/134
f 40/84/135 127/223/135 126/222/135 41/88/135
f 41/88/136 126/222/136 124/220/136 42/94/136
f 43/95/137 125/221/137 124/220/137 49/101/137
f 64/131/68 60/123/68 142/239/68 131/228/68
f 131/228/68 142/239/68 141/238/68 132/229/68
f 132/229/68 141/238/68 140/237/68 133/230/68
f 61/125/67 65/133/67 136/233/67 137/234/67
f 137/234/67 136/233/67 135/232/67 138/235/67
f 138/235/67 135/232/67 134/231/67 139/236/67
f 60/123/138 61/125/138 137/234/138 142/239/138
f 142/239/139 137/234/139 138/235/139 141/238/139
f 141/238/140 138/235/140 139/236/140 140/237/140
f 65/133/141 64/131/141 131/228/141 136/233/141
f 136/233/142 131/228/142 132/229/142 135/232/142
f 135/232/143 132/229/143 133/230/143 134/231/143
f 58/119/144 59/121/144 148/245/144 149/246/144
f 149/246/145 148/245/145 147/244/145 150/247/145
f 150/247/146 147/244/146 146/243/146 151/248/146
f 63/129/147 62/127/147 154/251/147 143/240/147
f 143/240/148 154/251/148 153/250/148 144/241/148
f 144/241/149 153/250/149 152/249/149 145/242/149
f 62/127/62 58/119/62 149/246/62 154/251/62
f 154/251/62 149/246/62 150/247/62 153/250/62
f 153/250/62 150/247/62 151/248/62 152/249/62
f 59/121/54 63/129/54 143/240/54 148/245/54
f 148/245/54 143/240/54 144/241/54 147/244/54
f 147/244/54 144/241/54 145/242/54 146/243/54
